<svg xmlns="http://www.w3.org/2000/svg" height="1024" preserveAspectRatio="none" style="display: block;" version="1.1" viewBox="0 0 2048 2048" width="1024">
<path d="M 584.509 276.427 C 606.782 275.293 634.301 275.868 656.731 275.905 L 771.036 276.002 L 1133.09 276.075 L 1364.63 276.112 L 1431.24 276.054 C 1455.37 276.011 1481.37 275.673 1505.23 279.682 C 1562.46 289.161 1616.11 313.756 1660.65 350.921 C 1726.64 406.705 1766.17 480.722 1772.77 566.933 C 1774.62 591.046 1774.05 616.045 1774.09 640.282 L 1774.12 755.252 L 1774.03 1093.92 L 1773.98 1355.59 C 1773.94 1403.1 1777.03 1467.39 1769.34 1512.9 C 1760.81 1563.49 1735.14 1619.38 1701.85 1658.46 C 1638.54 1732.8 1565.22 1766.66 1468.96 1774.83 C 1401.03 1776.29 1329.16 1775.05 1260.76 1775.08 L 866.079 1775.13 L 677.988 1774.95 C 631.515 1774.89 585.727 1777 539.717 1769.46 C 396.093 1745.94 284.835 1620.95 277.863 1475.87 C 276.642 1450.45 276.985 1424.92 277.006 1399.47 L 277.26 1281.22 L 277.411 937.014 L 277.345 708.857 L 277.007 625.587 C 276.958 593.267 276.081 567.624 282.031 535.492 C 292.494 478.544 318.447 425.58 357.039 382.415 C 416.753 316.002 495.967 280.848 584.509 276.427 z" fill="rgb(34,40,97)" transform="translate(0,0)"></path>
<path d="M 956.014 614.459 C 992.396 613.782 1031.56 614.62 1068.17 614.607 C 1127.52 614.369 1186.87 614.437 1246.22 614.812 L 1246.15 854.634 C 1317.86 855.67 1391.81 854.781 1463.77 854.934 L 1464.06 1185.03 L 1464.04 1278.08 C 1464.03 1294.53 1464.55 1311.55 1463.4 1327.94 C 1461.37 1357 1440.01 1374.49 1412.07 1378.01 L 1094.64 1378.19 L 1000.41 1378.21 C 982.647 1378.17 963.657 1378.78 946.163 1376.9 C 923.056 1374.41 903.308 1350.68 902.13 1327.96 C 901.422 1314.31 901.708 1300.61 901.694 1286.98 L 901.754 1212.06 L 901.939 989.647 L 901.854 777.773 L 901.599 704.605 C 901.565 680.743 897.734 651.233 914.858 632.442 C 926.45 619.72 939.457 615.523 956.014 614.459 z" fill="rgb(255,255,255)" transform="translate(0,0)"></path>
<path d="M 858.795 703.39 C 861.467 702.883 862.199 702.523 864.871 703.037 C 866.678 706.363 865.821 859.949 865.82 873.587 L 866.226 1216.12 L 866.3 1282.6 C 866.208 1301.13 864.635 1332.06 869.311 1349.18 C 874.747 1368.76 887.754 1385.38 905.46 1395.36 C 895.039 1396.82 884.443 1398.69 873.948 1399.37 C 824.644 1402.58 821.97 1364.38 815.228 1328.78 L 741.628 985.624 L 709.278 834.531 C 705.18 814.851 700.18 795.572 696.41 775.716 C 692.565 757.93 705.82 732.575 723.313 726.424 C 738.451 721.101 760.366 718.769 776.719 716.133 C 804.014 711.487 831.376 707.239 858.795 703.39 z" fill="rgb(255,255,255)" transform="translate(0,0)"></path>
<path d="M 666.859 816.922 L 668.961 817.073 C 672.304 822.836 687.983 902.387 690.885 915.869 L 751.343 1194.85 L 776.021 1311.61 C 787.37 1365.41 785.589 1411.5 852.783 1416.15 C 834.187 1428.43 817.969 1440.46 794.304 1432.68 C 770.442 1424.84 762.482 1404.75 751.787 1384.44 C 724.306 1329.53 693.509 1273.08 664.589 1218.87 L 576.83 1052.44 C 558.91 1018.3 540.8 984.108 523.104 949.833 C 514.556 933.277 513.415 920.475 519.628 902.639 C 522.362 894.79 530.958 885.336 537.882 880.653 C 553.252 870.257 573.782 861.361 590.704 853.317 L 666.859 816.922 z" fill="rgb(255,255,255)" transform="translate(0,0)"></path>
<path d="M 1499.91 848.383 C 1505.76 851.764 1536.78 883.958 1543.98 891.061 C 1545.12 996.395 1545.39 1101.74 1544.79 1207.08 L 1544.76 1288.29 C 1544.7 1321.57 1550.34 1353.93 1518.33 1374.14 C 1504.31 1380.74 1493.67 1379.34 1478.51 1379.13 C 1505.91 1349.1 1500.47 1325.38 1500.55 1287.01 L 1500.64 1198.02 L 1499.91 848.383 z" fill="rgb(249,91,86)" transform="translate(0,0)"></path>
<path d="M 1284.82 631.714 C 1285.69 632.339 1287.92 633.967 1289.18 635.159 C 1350.7 693.617 1410.76 753.789 1471.38 813.2 C 1471.43 813.788 1471.48 814.375 1471.54 814.963 C 1411.13 816.447 1345.18 816.26 1284.47 815.541 C 1283.3 795.292 1284.11 767.276 1284.17 746.494 C 1284.19 708.234 1284.41 669.973 1284.82 631.714 z" fill="rgb(255,255,255)" transform="translate(0,0)"></path>
<metadata><recraft-signature>{"signed_by": "recraft", "signature_b64": "16KoAW7VM9VdR1OFr/3lEkqHIA9ZhtTpWp4wfev8XnJuy6RdDsjmhtyc/hp86shU07NVBR9bLQaoOez1EwcxBw==", "signing_algo": "Ed25519", "generation_timestamp": 1783864577, "identifier": "2ab90983-dfc9-4684-a325-705068a523ae"}</recraft-signature></metadata></svg>